<?xml version="1.0" standalone="no"?><!DOCTYPE svg PUBLIC "-//W3C//DTD SVG 1.1//EN" "http://www.w3.org/Graphics/SVG/1.1/DTD/svg11.dtd"><svg t="1618278790472" class="icon" viewBox="0 0 1024 1024" version="1.1" xmlns="http://www.w3.org/2000/svg" p-id="3652" xmlns:xlink="http://www.w3.org/1999/xlink" width="200" height="200"><defs><style type="text/css"></style></defs><path d="M682.666667 136.533333c112.64 0 204.8 92.16 204.8 204.8h68.266666c0-150.186667-122.88-273.066667-273.066666-273.066666s-273.066667 122.88-273.066667 273.066666h68.266667c0-112.64 92.16-204.8 204.8-204.8z m-136.533334 204.8h68.266667c0-37.546667 30.72-68.266667 68.266667-68.266666s68.266667 30.72 68.266666 68.266666h68.266667c0-75.093333-61.44-136.533333-136.533333-136.533333s-136.533333 61.44-136.533334 136.533333z m-273.066666 307.2H204.8v68.266667h68.266667v-68.266667z m443.733333-307.2h-68.266667v136.533334H68.266667v443.733333h887.466666V477.866667h-238.933333v-136.533334z m170.666667 204.8v307.2H136.533333v-307.2h750.933334z m-375.466667 102.4h-170.666667v68.266667h170.666667v-68.266667z" p-id="3653"></path></svg>