<?xml version="1.0" standalone="no"?><!DOCTYPE svg PUBLIC "-//W3C//DTD SVG 1.1//EN" "http://www.w3.org/Graphics/SVG/1.1/DTD/svg11.dtd"><svg t="1618558771811" class="icon" viewBox="0 0 1036 1024" version="1.1" xmlns="http://www.w3.org/2000/svg" p-id="2199" xmlns:xlink="http://www.w3.org/1999/xlink" width="202.34375" height="200"><defs><style type="text/css"></style></defs><path d="M883.0336 0h-716.8c-84.48 0-153.6 69.12-153.6 153.6v819.2c0 20.48 12.16 39.68 31.36 47.36 6.4 2.56 12.8 3.84 19.84 3.84 13.44 0 26.24-5.12 36.48-14.72L290.3936 819.2h592.64c84.48 0 153.6-69.12 153.6-153.6V153.6c0-84.48-69.12-153.6-153.6-153.6z m51.2 665.6c0 28.16-23.04 51.2-51.2 51.2h-614.4c-13.44 0-26.88 5.12-36.48 14.72l-117.12 117.76V153.6c0-28.16 23.04-51.2 51.2-51.2h716.8c28.16 0 51.2 23.04 51.2 51.2v512z m-153.6-409.6h-512c-28.16 0-51.2 23.04-51.2 51.2s23.04 51.2 51.2 51.2h512c28.16 0 51.2-23.04 51.2-51.2s-23.04-51.2-51.2-51.2z m0 204.8h-512c-28.16 0-51.2 23.04-51.2 51.2s23.04 51.2 51.2 51.2h512c28.16 0 51.2-23.04 51.2-51.2s-23.04-51.2-51.2-51.2z" p-id="2200"></path></svg>